<svg version="1.1" xmlns="http://www.w3.org/2000/svg" xmlns:xlink="http://www.w3.org/1999/xlink" x="0px" y="0px"
	 viewBox="0 0 80.3 90" style="enable-background:new 0 0 80.3 90;" xml:space="preserve">
<path class="svg-fill" d="M59.1,57.6c0,3.6,1.5,6.9,2.8,9.8c0.7,1.5,0.6,2.3,0.5,2.6c-0.1,0.3-0.5,0.4-1,0.5c-0.5,0.1-1.1-0.5-1.4-1.2
	l-28.1-67l-0.1-0.3H0v86.1h21.3V32.4c0-3.6-1.5-6.9-2.8-9.8c-0.6-1.2-0.7-2-0.5-2.5c0.1-0.3,0.5-0.5,1-0.6c0.5-0.1,1.1,0.5,1.4,1.2
	l28.1,67l0.1,0.3h31.8V1.9H59L59.1,57.6L59.1,57.6z"/>
</svg>
