<svg version="1.1" xmlns="http://www.w3.org/2000/svg" xmlns:xlink="http://www.w3.org/1999/xlink" x="0px" y="0px"
	 viewBox="0 0 88.1 90" style="enable-background:new 0 0 88.1 90;" xml:space="preserve">
<style type="text/css">
	.st0{fill:#010101;}
</style>
<path class="st0" d="M66.8,45c0,15.9-9.2,26.6-22.8,26.6S21.3,60.9,21.3,45S30.4,18.4,44,18.4S66.8,29.1,66.8,45 M44,0
	C30.4,0,19,4.6,11.2,13.2C4,21.2,0,32.5,0,45s4,23.8,11.2,31.8C19,85.4,30.4,90,44,90s25-4.6,32.8-13.2c7.2-7.9,11.2-19.2,11.2-31.8
	s-4-23.8-11.2-31.8C69,4.6,57.7,0,44,0"/>
</svg>
