<svg version="1.1" xmlns="http://www.w3.org/2000/svg" xmlns:xlink="http://www.w3.org/1999/xlink" x="0px" y="0px"
	 viewBox="0 0 103.5 90" style="enable-background:new 0 0 103.5 90;" xml:space="preserve">
<style type="text/css">
	.st0{fill:#010101;}
</style>
<path class="st0" d="M54.7,61.8c-0.9,3.2-1.3,6.1-1.5,9.2c0,1.6-0.6,1.9-1.5,1.9c-0.9,0-1.5-0.3-1.5-2c-0.1-3.1-0.6-6-1.5-9.2
	L33.3,1.9H0v86.1h21.3V32.5c0-3.9-1.3-8.7-2.5-11.9c-0.5-1.3-0.6-2.2-0.4-2.6c0.1-0.2,0.4-0.4,0.8-0.5c1-0.2,1.3,0.3,1.7,1.7
	l18.3,68.5l0.1,0.3h24.9l18.4-68.8c0.4-1.4,0.7-2,1.8-1.7c0.4,0.1,0.6,0.2,0.8,0.5c0.2,0.5,0.1,1.3-0.4,2.6
	c-1.2,3.2-2.4,8.1-2.4,11.9v55.5h21.3V1.9H70.3L54.7,61.8z"/>
</svg>
