<svg version="1.1" xmlns="http://www.w3.org/2000/svg" xmlns:xlink="http://www.w3.org/1999/xlink" x="0px" y="0px"
	 viewBox="0 0 84.2 90" style="enable-background:new 0 0 84.2 90;" xml:space="preserve">
<style type="text/css">
	.st0{fill:#010101;}
</style>
<path class="st0" d="M44.4,18.4c12.2,0,16.9,7.2,18.7,13.2l0.1,0.3h21.1l-0.1-0.5c-1-8.5-5-16.2-11.2-21.7C65.9,3.3,55.9,0,44.3,0
	C30.9,0,19.6,4.6,11.6,13.2C4.1,21.3,0,32.6,0,45c0,26.9,16.1,45,40,45c14.3,0,20.7-9.8,23.3-15.7c0.2-0.5,0.6-0.9,1-1.1
	c0.3-0.1,0.5-0.1,0.8,0.1c0.8,0.4,0.7,1.2-0.2,3.3c-1.5,3.5-2,6.8-2,8.8v2.7h21.3V40.7H43.6v17.4h19.3c-1,5-7.5,13.6-19.8,13.6
	c-13.6,0-21.8-10-21.8-26.6C21.2,28.8,30.3,18.4,44.4,18.4"/>
</svg>
