<svg xmlns="http://www.w3.org/2000/svg" version="1.1" xmlns:xlink="http://www.w3.org/1999/xlink" xmlns:svgjs="http://svgjs.com/svgjs" width="1080" height="1080"><svg version="1.1" id="SvgjsSvg1000" xmlns="http://www.w3.org/2000/svg" xmlns:xlink="http://www.w3.org/1999/xlink" x="0px" y="0px" viewBox="0 0 1080 1080" style="enable-background:new 0 0 1080 1080;" xml:space="preserve">
<g>
	<path d="M270.1,1079.9C419.2,1079.9,540,959,540,809.9c0-149.2-120.9-270.1-269.9-270.1S0.1,660.7,0.1,809.9
		C0.1,959,121,1079.9,270.1,1079.9"></path>
	<path d="M288.2,0.7C282.2,0.3,276.1,0,270,0c-6.1,0-12.1,0.3-18,0.7l18.1,269.6L288.2,0.7z"></path>
	<path d="M217.9,5.1c-12,2.3-23.7,5.5-35,9.4l87.3,255.8L217.9,5.1z"></path>
	<path d="M151,27.6C140.1,33,129.6,39,119.6,45.8l150.5,224.5L151,27.6z"></path>
	<path d="M92.4,66.8c-9.1,8-17.7,16.5-25.6,25.7l203.4,177.8L92.4,66.8z"></path>
	<path d="M45.7,119.7c-6.7,10-12.8,20.5-18.1,31.4l242.5,119.1L45.7,119.7z"></path>
	<path d="M14.5,182.9c-3.9,11.4-7,23.1-9.4,35l265,52.3L14.5,182.9z"></path>
	<path d="M0.7,252.1c-0.4,6-0.7,12-0.7,18c0,6.1,0.3,12.2,0.7,18.3l269.4-18.1L0.7,252.1z"></path>
	<path d="M5.1,322.5c2.4,12,5.5,23.7,9.4,35l255.6-87.3L5.1,322.5z"></path>
	<path d="M27.7,389.3c5.4,10.9,11.4,21.4,18.1,31.4l224.3-150.5L27.7,389.3z"></path>
	<path d="M66.8,447.9c8,9.1,16.5,17.7,25.6,25.6l177.6-203.3L66.8,447.9z"></path>
	<path d="M119.7,494.6c10,6.7,20.5,12.8,31.4,18.1l119-242.4L119.7,494.6z"></path>
	<path d="M182.9,525.8c11.4,3.9,23,7,35,9.4l52.2-264.9L182.9,525.8z"></path>
	<path d="M252,539.6c6,0.4,12,0.7,18,0.7c6.1,0,12.2-0.3,18.2-0.7l-18.1-269.3L252,539.6z"></path>
	<path d="M322.3,535.2c12-2.4,23.6-5.5,35-9.4l-87.2-255.5L322.3,535.2z"></path>
	<path d="M389,512.6c10.9-5.4,21.4-11.4,31.4-18.1L270.1,270.2L389,512.6z"></path>
	<path d="M447.6,473.5c9.1-8,17.7-16.5,25.6-25.6L270.1,270.2L447.6,473.5z"></path>
	<path d="M494.2,420.6c6.7-10,12.8-20.5,18.1-31.4l-242.3-119L494.2,420.6z"></path>
	<path d="M525.5,357.5c3.9-11.4,7.1-23,9.4-35l-264.8-52.2L525.5,357.5z"></path>
	<path d="M539.3,288.4c0.4-6,0.7-12.1,0.7-18.2c0-6.1-0.3-12.1-0.7-18l-269.3,18.1L539.3,288.4z"></path>
	<path d="M535,218c-2.3-12-5.5-23.7-9.4-35l-255.5,87.3L535,218z"></path>
	<path d="M512.5,151.2c-5.4-10.9-11.4-21.4-18.1-31.4L270.1,270.2L512.5,151.2z"></path>
	<path d="M473.4,92.5c-8-9.1-16.5-17.7-25.6-25.7L270.1,270.2L473.4,92.5z"></path>
	<path d="M420.5,45.8c-10-6.7-20.5-12.8-31.4-18.2l-119,242.5L420.5,45.8z"></path>
	<path d="M357.4,14.5c-11.4-3.9-23-7.1-35-9.4l-52.2,265.1L357.4,14.5z"></path>
	<path d="M828.2,540.4c-6-0.4-12.1-0.7-18.2-0.7c-6.1,0-12.1,0.3-18,0.7L810.1,810L828.2,540.4z"></path>
	<path d="M757.8,544.8c-12,2.3-23.7,5.5-35,9.4L810.1,810L757.8,544.8z"></path>
	<path d="M691,567.4c-10.9,5.4-21.4,11.4-31.4,18.1L810.1,810L691,567.4z"></path>
	<path d="M632.3,606.5c-9.1,8-17.7,16.5-25.6,25.7L810.1,810L632.3,606.5z"></path>
	<path d="M585.7,659.4c-6.7,10-12.8,20.5-18.1,31.4L810.1,810L585.7,659.4z"></path>
	<path d="M554.4,722.7c-3.9,11.4-7,23.1-9.4,35l265,52.3L554.4,722.7z"></path>
	<path d="M540.6,791.8c-0.4,6-0.7,12-0.7,18c0,6.1,0.3,12.2,0.7,18.3L810.1,810L540.6,791.8z"></path>
	<path d="M545.1,862.2c2.4,12,5.5,23.7,9.4,35L810.1,810L545.1,862.2z"></path>
	<path d="M567.7,929.1c5.4,10.9,11.4,21.4,18.1,31.4L810.1,810L567.7,929.1z"></path>
	<path d="M606.8,987.7c8,9.1,16.5,17.7,25.6,25.6L810.1,810L606.8,987.7z"></path>
	<path d="M659.7,1034.3c10,6.7,20.5,12.8,31.4,18.1l119-242.4L659.7,1034.3z"></path>
	<path d="M722.9,1065.5c11.4,3.9,23,7,35,9.4L810.1,810L722.9,1065.5z"></path>
	<path d="M792,1079.3c6,0.4,12,0.7,18,0.7c6.1,0,12.2-0.3,18.2-0.7L810.1,810L792,1079.3z"></path>
	<path d="M862.3,1074.9c12-2.4,23.6-5.5,35-9.4L810.1,810L862.3,1074.9z"></path>
	<path d="M929,1052.4c10.9-5.4,21.4-11.4,31.4-18.1L810.1,810L929,1052.4z"></path>
	<path d="M987.6,1013.2c9.1-8,17.7-16.5,25.6-25.6L810.1,810L987.6,1013.2z"></path>
	<path d="M1034.2,960.4c6.7-10,12.8-20.5,18.1-31.4L810.1,810L1034.2,960.4z"></path>
	<path d="M1065.5,897.2c3.9-11.4,7.1-23,9.4-35L810.1,810L1065.5,897.2z"></path>
	<path d="M1079.3,828.1c0.4-6,0.7-12.1,0.7-18.2c0-6.1-0.3-12.1-0.7-18L810.1,810L1079.3,828.1z"></path>
	<path d="M1074.9,757.8c-2.3-12-5.5-23.7-9.4-35L810.1,810L1074.9,757.8z"></path>
	<path d="M1052.4,690.9c-5.4-10.9-11.4-21.4-18.1-31.4L810.1,810L1052.4,690.9z"></path>
	<path d="M1013.3,632.3c-8-9.1-16.5-17.7-25.6-25.7L810.1,810L1013.3,632.3z"></path>
	<path d="M960.5,585.6c-10-6.7-20.5-12.8-31.4-18.2L810.1,810L960.5,585.6z"></path>
	<path d="M897.3,554.3c-11.4-3.9-23-7.1-35-9.4L810.1,810L897.3,554.3z"></path>
	<path d="M810,540.2c149.1,0,269.9-120.9,269.9-270.1C1079.9,121,959.1,0.1,810,0.1C660.9,0.1,540,121,540,270.1
		C540,419.3,660.9,540.2,810,540.2"></path>
</g>
</svg><style>@media (prefers-color-scheme: light) { :root { filter: none; } }
@media (prefers-color-scheme: dark) { :root { filter: none; } }
</style></svg>